<svg xmlns="http://www.w3.org/2000/svg" viewBox="0 0 23.8 23.8"><circle cx="11.9" cy="11.9" r="11.4" style="fill:#020030;stroke:#00404f;stroke-miterlimit:10"/><path d="M17.31 19.54a.75.75 0 0 1-.33-.07.7.7 0 0 1-.29-.19l-4.18-4.18a.8.8 0 0 1-.2-.29 1 1 0 0 1-.06-.33 1 1 0 0 1 .06-.34.69.69 0 0 1 .2-.3L14 12.35a1.21 1.21 0 0 1 .3-.2.86.86 0 0 1 .68 0 1 1 0 0 1 .29.2l4.18 4.2a.8.8 0 0 1 .2.29.72.72 0 0 1 .07.33.68.68 0 0 1-.08.34.86.86 0 0 1-.19.29L18 19.28a1 1 0 0 1-.64.26Z" style="fill:#ff0"/><path style="fill:#ff0" d="m16.95 17.17.54-.54-3.25-3.26-.54.54 3.25 3.26zM10.6 11.58 7.46 8.44H6.37l-2.5-2.5 2.2-2.19 2.5 2.5v1.08l3.14 3.14"/><path d="m11.93 10.71 2.19-2.19L13 7.43l1-.94h-1.94l-.54-.55 2.75-2.76.55.56v1.91l.95-1 3.11 3.13a2.58 2.58 0 0 1 .5.72 2.13 2.13 0 0 1 0 1.76 2.92 2.92 0 0 1-.51.78l-1.64-1.57-1.06 1.07-.92-.92-3.88 3.88v1.62l-4.18 4.16a.77.77 0 0 1-.29.19.88.88 0 0 1-.33.06 1 1 0 0 1-.34-.06.67.67 0 0 1-.3-.19l-1.47-1.46a.67.67 0 0 1-.19-.28 1 1 0 0 1-.06-.35 1 1 0 0 1 .06-.33.77.77 0 0 1 .19-.31l4.18-4.16h1.62l.56-.57" style="fill:#23ff07"/><path style="fill:#23ff07" d="m6.57 17.72 3.41-3.41v-.54h-.54l-3.41 3.41.54.54z"/></svg>