<svg xmlns="http://www.w3.org/2000/svg" viewBox="0 0 23.8 23.8"><g data-name="Layer 2"><g data-name="Layer 1"><circle cx="11.9" cy="11.9" r="11.4" style="fill:#02001f;stroke:#00404f;stroke-miterlimit:10"/><path d="M12.27 10.91a.45.45 0 0 0-.9 0v1.57H9.8a.45.45 0 0 0 0 .9h1.57V15a.45.45 0 1 0 .9 0v-1.62h1.57a.45.45 0 0 0 0-.9h-1.57Z" style="fill:#f3ff08"/><path d="M11.55 8.33V7.15h1.18v1.18Zm-.2-2.56A1.18 1.18 0 0 0 10.17 7v.1h-2.9a1.6 1.6 0 0 0-1.42-.89 1.58 1.58 0 1 0 1.42 2.21h1.64a5.82 5.82 0 0 0-2.56 4.42h-.11A1.17 1.17 0 0 0 5.07 14v1.57a1.17 1.17 0 0 0 1.17 1.18h1.58A1.17 1.17 0 0 0 9 15.59V14a1.17 1.17 0 0 0-1.17-1.18h-.1a4.43 4.43 0 0 1 2.64-3.66 1.18 1.18 0 0 0 1 .52h1.57a1.18 1.18 0 0 0 1-.52 4.43 4.43 0 0 1 2.64 3.66h-.08A1.18 1.18 0 0 0 15.28 14v1.57a1.18 1.18 0 0 0 1.18 1.18H18a1.18 1.18 0 0 0 1.18-1.18V14A1.18 1.18 0 0 0 18 12.84h-.11a5.81 5.81 0 0 0-2.55-4.42H17a1.56 1.56 0 0 0 1.41.89A1.58 1.58 0 1 0 17 7.05h-2.9V7a1.18 1.18 0 0 0-1.18-1.18Zm-4.91 8.45h1.18v1.18H6.44Zm10.21 1.18v-1.18h1.18v1.18Z" style="fill:#23ff07"/></g></g></svg>