<svg xmlns="http://www.w3.org/2000/svg" viewBox="0 0 23.8 23.8"><g data-name="Layer 2"><g data-name="Layer 1"><circle cx="11.9" cy="11.9" r="11.4" style="fill:#02001f;stroke:#00404f;stroke-miterlimit:10"/><path d="M10.13 11.8 9 12.89a2.92 2.92 0 0 0-1.11-.21A3.09 3.09 0 1 0 11 15.77a3.23 3.23 0 0 0-.21-1.12l1.09-1.09L13 14.65a3 3 0 0 0-.21 1.12 3.09 3.09 0 1 0 3.09-3.09 2.92 2.92 0 0 0-1.11.21L7 5.09a.5.5 0 0 0-.71 0 2 2 0 0 0 0 2.82Zm4.16-.63 3.26-3.26a2 2 0 0 0 0-2.82.5.5 0 0 0-.71 0l-4.32 4.32Zm-6.36 5.92a1.32 1.32 0 1 1 1.32-1.32 1.33 1.33 0 0 1-1.32 1.32Zm6.62-1.32a1.33 1.33 0 1 1 1.32 1.32 1.32 1.32 0 0 1-1.32-1.32Z" style="fill:#23ff07"/></g></g></svg>