<svg xmlns="http://www.w3.org/2000/svg" viewBox="0 0 23.8 23.8"><g data-name="Layer 2"><g data-name="Layer 1"><circle cx="11.9" cy="11.9" r="11.4" style="fill:#02001f;stroke:#00404f;stroke-miterlimit:10"/><path d="M6.42 19a1.52 1.52 0 0 1-1.11-.47 1.49 1.49 0 0 1-.46-1.11v-11a1.48 1.48 0 0 1 .46-1.11 1.52 1.52 0 0 1 1.11-.51h11a1.52 1.52 0 0 1 1.11.47A1.48 1.48 0 0 1 19 6.38v11a1.49 1.49 0 0 1-.46 1.11 1.52 1.52 0 0 1-1.11.47Zm0-1.58h11v-11h-11Zm0 0v0Z" style="fill:#23ff07;stroke:#23ff07;stroke-linecap:round;stroke-linejoin:round;stroke-width:.25px"/></g></g></svg>