<svg xmlns="http://www.w3.org/2000/svg" viewBox="0 0 23.8 23.8"><defs><style>.cls-2{fill:#23ff07}</style></defs><g id="Layer_2" data-name="Layer 2"><g id="Layer_1-2" data-name="Layer 1"><circle cx="11.9" cy="11.9" r="11.4" style="fill:#02001f;stroke:#00404f;stroke-miterlimit:10"/><path d="M14.45 14.86 15 13a3.61 3.61 0 0 0 2-1.26 3.61 3.61 0 0 0-.28-4.8 3.64 3.64 0 0 0-4.8-.28 3.61 3.61 0 0 0-1.26 2l-1.89.57a5.26 5.26 0 0 1 1.67-3.65 5.21 5.21 0 0 1 3.74-1.49A5.2 5.2 0 0 1 18 5.63a5.22 5.22 0 0 1 1.58 3.83 5.4 5.4 0 0 1-5.13 5.4Z" class="cls-2"/><circle cx="14.65" cy="9.07" r="1.98" style="fill:#ff1010"/><path d="m6.5 18.91-1.78-1.78 3.85-3.85-3.4-1.12 9.01-2.7-2.71 9-1.12-3.4-3.85 3.85z" class="cls-2"/></g></g></svg>