<svg xmlns="http://www.w3.org/2000/svg" viewBox="0 0 23.8 23.8"><g data-name="Layer 2"><g data-name="Layer 1"><circle cx="11.9" cy="11.9" r="11.4" style="fill:#02001f;stroke:#00404f;stroke-miterlimit:10"/><path d="M5.26 16.19a1.38 1.38 0 0 1-1-.42 1.37 1.37 0 0 1-.42-1 1.43 1.43 0 0 1 1.43-1.43h.19a.38.38 0 0 1 .17 0l3.25-3.26a.51.51 0 0 1 0-.17v-.16a1.43 1.43 0 0 1 2.86 0s0 .15 0 .36l1.83 1.83a.35.35 0 0 1 .17 0H14a.35.35 0 0 1 .17 0l2.57-2.54a.55.55 0 0 1 0-.17V9a1.37 1.37 0 0 1 .42-1 1.42 1.42 0 0 1 2 0 1.37 1.37 0 0 1 .42 1 1.43 1.43 0 0 1-1.43 1.43H18a.38.38 0 0 1-.17 0L15.24 13a.38.38 0 0 1 0 .17v.19a1.43 1.43 0 0 1-1.43 1.43 1.37 1.37 0 0 1-1-.42 1.38 1.38 0 0 1-.42-1v-.19a.55.55 0 0 1 0-.17l-1.82-1.82h-.72L6.66 14.4a.55.55 0 0 1 0 .17v.19a1.37 1.37 0 0 1-.42 1 1.38 1.38 0 0 1-.98.43Z" style="fill:#23ff07"/></g></g></svg>