<svg xmlns="http://www.w3.org/2000/svg" viewBox="0 0 23.8 23.8"><g data-name="Layer 2"><g data-name="Layer 1"><circle cx="11.9" cy="11.9" r="11.4" style="fill:#02001f;stroke:#00404f;stroke-miterlimit:10"/><path d="M12.1 4.39a.93.93 0 0 0-.87-1 .92.92 0 0 0-.86 1v6.36a.47.47 0 0 1-.44.49.46.46 0 0 1-.43-.49V5.37a.93.93 0 0 0-.87-1 .92.92 0 0 0-.86 1v8.45l-1.64-1.76a1 1 0 0 0-1.53 0 1.33 1.33 0 0 0 0 1.73l3.08 3.31a5.91 5.91 0 0 0 4.33 2h.52c2.64 0 4.77-2.41 4.77-5.38v-6.4a.87.87 0 1 0-1.73 0v3.43a.44.44 0 1 1-.87 0V5.37a.87.87 0 1 0-1.73 0v5.38a.44.44 0 1 1-.87 0Z" style="fill:#23ff07;stroke:#00000f;stroke-linecap:round;stroke-linejoin:round;stroke-width:.25px"/></g></g></svg>