<svg xmlns="http://www.w3.org/2000/svg" viewBox="0 0 23.8 23.8"><g data-name="Layer 2"><g data-name="Layer 1"><circle cx="11.9" cy="11.9" r="11.4" style="fill:#02001f;stroke:#00404f;stroke-miterlimit:10"/><path d="M8.93 13.15a.55.55 0 0 0 .54.55h5.45a.56.56 0 0 0 0-1.11H9.47a.55.55 0 0 0-.54.56Z" style="fill:#f3ff08"/><path d="M11.54 8.69V7.38h1.31v1.31Zm-.22-2.83A1.3 1.3 0 0 0 10 7.17v.1H6.79a1.75 1.75 0 1 0 0 1.53h1.82a6.44 6.44 0 0 0-2.83 4.9h-.12A1.31 1.31 0 0 0 4.35 15v1.75a1.31 1.31 0 0 0 1.31 1.3H7.4a1.31 1.31 0 0 0 1.31-1.3V15a1.31 1.31 0 0 0-1.31-1.3h-.09a4.91 4.91 0 0 1 2.93-4.06 1.29 1.29 0 0 0 1.08.58h1.75a1.29 1.29 0 0 0 1.08-.58 4.91 4.91 0 0 1 2.93 4.06H17a1.31 1.31 0 0 0-1.32 1.3v1.75A1.31 1.31 0 0 0 17 18.06h1.74a1.3 1.3 0 0 0 1.26-1.3V15a1.31 1.31 0 0 0-1.31-1.31h-.12a6.42 6.42 0 0 0-2.83-4.9h1.86a1.75 1.75 0 1 0 0-1.53h-3.22v-.1a1.31 1.31 0 0 0-1.31-1.31Zm-5.44 9.37h1.3v1.31h-1.3Zm11.33 1.31v-1.31h1.31v1.31Z" style="fill:#23ff07"/></g></g></svg>