<svg xmlns="http://www.w3.org/2000/svg" viewBox="0 0 23.8 23.8"><defs><style>.cls-3{stroke-miterlimit:10;stroke:#000;stroke-width:.1px;fill:#fffdfd}</style></defs><g id="Layer_2" data-name="Layer 2"><g id="Layer_1-2" data-name="Layer 1"><circle cx="11.9" cy="11.9" r="11.4" style="stroke-miterlimit:10;fill:#02001f;stroke:#00404f"/><path d="m6.39 7.74-.85 2.59a6.37 6.37 0 1 0 12.11 4l.85-2.59-3.5-1.18-.85 2.6A2.73 2.73 0 1 1 9 11.46l.85-2.59Z" style="stroke:#000;stroke-width:.1px;fill:#d60a00;stroke-miterlimit:10"/><path d="M6.67 6.87 10.13 8l.57-1.73a.92.92 0 0 0-.58-1.15l-1.74-.56a.9.9 0 0 0-1.14.58ZM15.32 9.7l3.47 1.13.56-1.73a.91.91 0 0 0-.58-1.1L17 7.39a.91.91 0 0 0-1.11.61Z" class="cls-3"/></g></g></svg>