<svg xmlns="http://www.w3.org/2000/svg" viewBox="0 0 23.8 23.8"><g data-name="Layer 2"><g data-name="Layer 1"><circle cx="11.9" cy="11.9" r="11.4" style="stroke-miterlimit:10;stroke:#00404f;fill:#020030"/><path d="M17.9 19.61a1.71 1.71 0 0 0 1.71-1.71v-12a1.71 1.71 0 0 0-1.71-1.71h-3.43a1.68 1.68 0 0 0-1.21.5 1.64 1.64 0 0 0-.5 1.21v12a1.64 1.64 0 0 0 .5 1.21 1.68 1.68 0 0 0 1.21.5Z" style="fill:#ff0;stroke:#ff0;stroke-width:.5px;stroke-miterlimit:10"/><path d="M9.33 19.61a1.68 1.68 0 0 0 1.21-.5A1.64 1.64 0 0 0 11 17.9v-12a1.64 1.64 0 0 0-.5-1.21 1.68 1.68 0 0 0-1.21-.5H5.9A1.71 1.71 0 0 0 4.19 5.9v12a1.71 1.71 0 0 0 1.71 1.71Z" style="fill:#23ff07"/><path d="M5.9 5.9h3.43v11.99H5.9z" style="fill:#020030"/></g></g></svg>