<svg xmlns="http://www.w3.org/2000/svg" viewBox="0 0 23.8 23.8"><g data-name="Layer 2"><g data-name="Layer 1"><circle cx="11.9" cy="11.9" r="11.4" style="fill:#02001f;stroke:#00404f;stroke-miterlimit:10"/><path d="M16.17 10.47a5.09 5.09 0 0 1-1 3l3.13 3.13a.78.78 0 0 1-1.11 1.11l-3.11-3.11a5.12 5.12 0 1 1 2.09-4.13ZM8.8 9.72a.75.75 0 0 0-.76.75.76.76 0 0 0 .76.76h4.53a.76.76 0 0 0 .75-.76.75.75 0 0 0-.75-.75Z" style="fill:#23ff07;stroke:#00000f;stroke-linecap:round;stroke-linejoin:round;stroke-width:.25px"/></g></g></svg>