<svg xmlns="http://www.w3.org/2000/svg" viewBox="0 0 23.8 23.8"><g data-name="Layer 2"><g data-name="Layer 1"><circle cx="11.9" cy="11.9" r="11.4" style="fill:#02001f;stroke:#00404f;stroke-miterlimit:10"/><path d="M16.15 10.45a5.3 5.3 0 0 1-1 3.13l3.23 3.24A.81.81 0 0 1 17.21 18L14 14.74a5.32 5.32 0 1 1 2.17-4.29Zm-6 2.52a.67.67 0 0 0 .68.68.68.68 0 0 0 .69-.68v-1.83h1.83a.69.69 0 0 0 0-1.38h-1.82V7.93a.69.69 0 0 0-.69-.69.68.68 0 0 0-.68.69v1.83H8.32a.69.69 0 0 0 0 1.38h1.84Z" style="fill:#23ff07;stroke:#00000f;stroke-linecap:round;stroke-linejoin:round;stroke-width:.25px"/></g></g></svg>